<svg aria-hidden="true" style="position: absolute; width: 0; height: 0; overflow: hidden;" version="1.1" xmlns="http://www.w3.org/2000/svg" xmlns:xlink="http://www.w3.org/1999/xlink">
<defs>

<symbol id="preferences" fill="currentColor" class="bi bi-sliders" viewBox="0 0 16 16">
  <path fill-rule="evenodd" d="M11.5 2a1.5 1.5 0 1 0 0 3 1.5 1.5 0 0 0 0-3zM9.05 3a2.5 2.5 0 0 1 4.9 0H16v1h-2.05a2.5 2.5 0 0 1-4.9 0H0V3h9.05zM4.5 7a1.5 1.5 0 1 0 0 3 1.5 1.5 0 0 0 0-3zM2.05 8a2.5 2.5 0 0 1 4.9 0H16v1H6.95a2.5 2.5 0 0 1-4.9 0H0V8h2.05zm9.45 4a1.5 1.5 0 1 0 0 3 1.5 1.5 0 0 0 0-3zm-2.45 1a2.5 2.5 0 0 1 4.9 0H16v1h-2.05a2.5 2.5 0 0 1-4.9 0H0v-1h9.05z"/>
</symbol>

<symbol id="data1" fill="currentColor" viewBox="0 0 16 16">
  <path d="M1.333 2.667C1.333 1.194 4.318 0 8 0s6.667 1.194 6.667 2.667V4c0 1.473-2.985 2.667-6.667 2.667S1.333 5.473 1.333 4V2.667z"/>
  <path d="M1.333 6.334v3C1.333 10.805 4.318 12 8 12s6.667-1.194 6.667-2.667V6.334a6.51 6.51 0 0 1-1.458.79C11.81 7.684 9.967 8 8 8c-1.966 0-3.809-.317-5.208-.876a6.508 6.508 0 0 1-1.458-.79z"/>
  <path d="M14.667 11.668a6.51 6.51 0 0 1-1.458.789c-1.4.56-3.242.876-5.21.876-1.966 0-3.809-.316-5.208-.876a6.51 6.51 0 0 1-1.458-.79v1.666C1.333 14.806 4.318 16 8 16s6.667-1.194 6.667-2.667v-1.665z"/>
</symbol>

<symbol id="data2" fill="currentColor" viewBox="0 0 32 32">
<path d="M16 0c-6.744 0-14 2.033-14 6.5v19c0 4.465 7.256 6.5 14 6.5s14-2.035 14-6.5v-19c0-4.467-7.258-6.5-14-6.5zM28 25.5c0 2.484-5.373 4.5-12 4.5-6.628 0-12-2.016-12-4.5v-3.736c2.066 2.129 7.050 3.236 12 3.236s9.934-1.107 12-3.236v3.736zM28 19.5h-0.004c0 0.010 0.004 0.021 0.004 0.031 0 2.469-5.373 4.469-12 4.469s-12-2-12-4.469c0-0.010 0.004-0.021 0.004-0.031h-0.004v-3.736c2.066 2.129 7.050 3.236 12 3.236s9.934-1.107 12-3.236v3.736zM28 13.5h-0.004c0 0.010 0.004 0.021 0.004 0.031 0 2.469-5.373 4.469-12 4.469s-12-2-12-4.469c0-0.010 0.004-0.021 0.004-0.031h-0.004v-3.436c2.621 1.997 7.425 2.936 12 2.936s9.379-0.939 12-2.936v3.436zM16 11c-6.628 0-12-2.016-12-4.5 0-2.486 5.372-4.5 12-4.5 6.627 0 12 2.014 12 4.5 0 2.484-5.373 4.5-12 4.5zM24 26c0-0.552 0.448-1 1-1s1 0.448 1 1c0 0.552-0.448 1-1 1s-1-0.448-1-1zM24 20c0-0.552 0.448-1 1-1s1 0.448 1 1c0 0.552-0.448 1-1 1s-1-0.448-1-1zM24 14c0-0.552 0.448-1 1-1s1 0.448 1 1c0 0.552-0.448 1-1 1s-1-0.448-1-1z"></path>
</symbol>

<symbol id="profile1" fill="currentColor" viewBox="0 0 16 16">
  <path d="M11 6a3 3 0 1 1-6 0 3 3 0 0 1 6 0z"/>
  <path fill-rule="evenodd" d="M0 8a8 8 0 1 1 16 0A8 8 0 0 1 0 8zm8-7a7 7 0 0 0-5.468 11.37C3.242 11.226 4.805 10 8 10s4.757 1.225 5.468 2.37A7 7 0 0 0 8 1z"/>
</symbol>

<symbol id="profile2" fill="currentColor" viewBox="0 0 16 16">
  <path d="M6 8a3 3 0 1 0 0-6 3 3 0 0 0 0 6zm-5 6s-1 0-1-1 1-4 6-4 6 3 6 4-1 1-1 1H1zM11 3.5a.5.5 0 0 1 .5-.5h4a.5.5 0 0 1 0 1h-4a.5.5 0 0 1-.5-.5zm.5 2.5a.5.5 0 0 0 0 1h4a.5.5 0 0 0 0-1h-4zm2 3a.5.5 0 0 0 0 1h2a.5.5 0 0 0 0-1h-2zm0 3a.5.5 0 0 0 0 1h2a.5.5 0 0 0 0-1h-2z"/>
</symbol>

<symbol id="profile3" fill="currentColor" viewBox="0 0 16 16">
  <path d="M11 8a3 3 0 1 1-6 0 3 3 0 0 1 6 0z"/>
  <path d="M14 14V4.5L9.5 0H4a2 2 0 0 0-2 2v12a2 2 0 0 0 2 2h8a2 2 0 0 0 2-2zM9.5 3A1.5 1.5 0 0 0 11 4.5h2v9.255S12 12 8 12s-5 1.755-5 1.755V2a1 1 0 0 1 1-1h5.5v2z"/>
</symbol>

<symbol id="profile4" fill="currentColor" viewBox="0 0 32 32">
<path d="M27 0h-24c-1.65 0-3 1.35-3 3v26c0 1.65 1.35 3 3 3h24c1.65 0 3-1.35 3-3v-26c0-1.65-1.35-3-3-3zM26 28h-22v-24h22v24zM8 18h14v2h-14zM8 22h14v2h-14zM10 9c0-1.657 1.343-3 3-3s3 1.343 3 3c0 1.657-1.343 3-3 3s-3-1.343-3-3zM15 12h-4c-1.65 0-3 0.9-3 2v2h10v-2c0-1.1-1.35-2-3-2z"></path>
</symbol>

<symbol id="palette" fill="currentColor" viewBox="0 0 16 16">
  <path d="M0 .5A.5.5 0 0 1 .5 0h5a.5.5 0 0 1 .5.5v5.277l4.147-4.131a.5.5 0 0 1 .707 0l3.535 3.536a.5.5 0 0 1 0 .708L10.261 10H15.5a.5.5 0 0 1 .5.5v5a.5.5 0 0 1-.5.5H3a2.99 2.99 0 0 1-2.121-.879A2.99 2.99 0 0 1 0 13.044m6-.21 7.328-7.3-2.829-2.828L6 7.188v5.647zM4.5 13a1.5 1.5 0 1 0-3 0 1.5 1.5 0 0 0 3 0zM15 15v-4H9.258l-4.015 4H15zM0 .5v12.495V.5z"/>
  <path d="M0 12.995V13a3.07 3.07 0 0 0 0-.005z"/>
</symbol>

<symbol id="signout" fill="currentColor" viewBox="0 0 16 16">
  <path fill-rule="evenodd" d="M10 12.5a.5.5 0 0 1-.5.5h-8a.5.5 0 0 1-.5-.5v-9a.5.5 0 0 1 .5-.5h8a.5.5 0 0 1 .5.5v2a.5.5 0 0 0 1 0v-2A1.5 1.5 0 0 0 9.5 2h-8A1.5 1.5 0 0 0 0 3.5v9A1.5 1.5 0 0 0 1.5 14h8a1.5 1.5 0 0 0 1.5-1.5v-2a.5.5 0 0 0-1 0v2z"/>
  <path fill-rule="evenodd" d="M15.854 8.354a.5.5 0 0 0 0-.708l-3-3a.5.5 0 0 0-.708.708L14.293 7.5H5.5a.5.5 0 0 0 0 1h8.793l-2.147 2.146a.5.5 0 0 0 .708.708l3-3z"/>
</symbol>

<symbol id="rocket" fill="currentColor" viewBox="0 0 20 20">
<path d="M11.933 13.069c0 0 7.059-5.094 6.276-10.924-0.017-0.127-0.059-0.213-0.112-0.268-0.054-0.055-0.137-0.098-0.263-0.115-5.697-0.801-10.674 6.422-10.674 6.422-4.318-0.517-4.004 0.344-5.974 5.076-0.377 0.902 0.234 1.213 0.904 0.959 0.67-0.252 2.148-0.811 2.148-0.811l2.59 2.648c0 0-0.546 1.514-0.793 2.199s0.055 1.311 0.938 0.926c4.624-2.016 5.466-1.694 4.96-6.112zM12.942 7.153c-0.598-0.613-0.598-1.604 0-2.217 0.598-0.611 1.567-0.611 2.166 0s0.598 1.603 0 2.217c-0.599 0.611-1.569 0.611-2.166 0z"></path>
</symbol>

<symbol id="dots" fill="currentColor" viewBox="0 0 16 330">
<path d="M16,8A8,8,0,1,1,8,0,8,8,0,0,1,16,8ZM8,261.8a8,8,0,1,0,8,8A8,8,0,0,0,8,261.8Zm0-26.18a8,8,0,1,0,8,8A8,8,0,0,0,8,235.62Zm0-26.18a8,8,0,1,0,8,8A8,8,0,0,0,8,209.44Zm0-26.18a8,8,0,1,0,8,8A8,8,0,0,0,8,183.26Zm0-26.18a8,8,0,1,0,8,8A8,8,0,0,0,8,157.08ZM8,130.9a8,8,0,1,0,8,8A8,8,0,0,0,8,130.9Zm0-26.18a8,8,0,1,0,8,8A8,8,0,0,0,8,104.72ZM8,78.54a8,8,0,1,0,8,8A8,8,0,0,0,8,78.54ZM8,52.36a8,8,0,1,0,8,8A8,8,0,0,0,8,52.36ZM8,26.18a8,8,0,1,0,8,8A8,8,0,0,0,8,26.18Zm0,288a8,8,0,1,0,8,8A8,8,0,0,0,8,314.16ZM8,288a8,8,0,1,0,8,8A8,8,0,0,0,8,288Z"/>
</symbol>



</defs>
</svg>
