<svg aria-hidden="true" style="position: absolute; width: 0; height: 0; overflow: hidden;" version="1.1" xmlns="http://www.w3.org/2000/svg" xmlns:xlink="http://www.w3.org/1999/xlink">
<defs>
<symbol id="theme" fill="currentColor" viewBox="0 0 16 16">
  <path d="M12 8a4 4 0 1 1-8 0 4 4 0 0 1 8 0zM8 0a.5.5 0 0 1 .5.5v2a.5.5 0 0 1-1 0v-2A.5.5 0 0 1 8 0zm0 13a.5.5 0 0 1 .5.5v2a.5.5 0 0 1-1 0v-2A.5.5 0 0 1 8 13zm8-5a.5.5 0 0 1-.5.5h-2a.5.5 0 0 1 0-1h2a.5.5 0 0 1 .5.5zM3 8a.5.5 0 0 1-.5.5h-2a.5.5 0 0 1 0-1h2A.5.5 0 0 1 3 8zm10.657-5.657a.5.5 0 0 1 0 .707l-1.414 1.415a.5.5 0 1 1-.707-.708l1.414-1.414a.5.5 0 0 1 .707 0zm-9.193 9.193a.5.5 0 0 1 0 .707L3.05 13.657a.5.5 0 0 1-.707-.707l1.414-1.414a.5.5 0 0 1 .707 0zm9.193 2.121a.5.5 0 0 1-.707 0l-1.414-1.414a.5.5 0 0 1 .707-.707l1.414 1.414a.5.5 0 0 1 0 .707zM4.464 4.465a.5.5 0 0 1-.707 0L2.343 3.05a.5.5 0 1 1 .707-.707l1.414 1.414a.5.5 0 0 1 0 .708z"/>
</symbol>
<symbol id="left-icon" fill="currentColor" viewBox="0 0 16 16">
  <path fill-rule="evenodd" d="M11.354 1.646a.5.5 0 0 1 0 .708L5.707 8l5.647 5.646a.5.5 0 0 1-.708.708l-6-6a.5.5 0 0 1 0-.708l6-6a.5.5 0 0 1 .708 0z"/>
</symbol>
<symbol id="right-icon" fill="currentColor" viewBox="0 0 16 16">
  <path fill-rule="evenodd" d="M4.646 1.646a.5.5 0 0 1 .708 0l6 6a.5.5 0 0 1 0 .708l-6 6a.5.5 0 0 1-.708-.708L10.293 8 4.646 2.354a.5.5 0 0 1 0-.708z"/>
</symbol>
<symbol id="fullscreen" fill="currentColor" viewBox="0 0 16 16">
  <path d="M1.5 1a.5.5 0 0 0-.5.5v4a.5.5 0 0 1-1 0v-4A1.5 1.5 0 0 1 1.5 0h4a.5.5 0 0 1 0 1h-4zM10 .5a.5.5 0 0 1 .5-.5h4A1.5 1.5 0 0 1 16 1.5v4a.5.5 0 0 1-1 0v-4a.5.5 0 0 0-.5-.5h-4a.5.5 0 0 1-.5-.5zM.5 10a.5.5 0 0 1 .5.5v4a.5.5 0 0 0 .5.5h4a.5.5 0 0 1 0 1h-4A1.5 1.5 0 0 1 0 14.5v-4a.5.5 0 0 1 .5-.5zm15 0a.5.5 0 0 1 .5.5v4a1.5 1.5 0 0 1-1.5 1.5h-4a.5.5 0 0 1 0-1h4a.5.5 0 0 0 .5-.5v-4a.5.5 0 0 1 .5-.5z"/>
</symbol>
<symbol id="fullscreen-exit" fill="currentColor" viewBox="0 0 16 16">
  <path d="M5.5 0a.5.5 0 0 1 .5.5v4A1.5 1.5 0 0 1 4.5 6h-4a.5.5 0 0 1 0-1h4a.5.5 0 0 0 .5-.5v-4a.5.5 0 0 1 .5-.5zm5 0a.5.5 0 0 1 .5.5v4a.5.5 0 0 0 .5.5h4a.5.5 0 0 1 0 1h-4A1.5 1.5 0 0 1 10 4.5v-4a.5.5 0 0 1 .5-.5zM0 10.5a.5.5 0 0 1 .5-.5h4A1.5 1.5 0 0 1 6 11.5v4a.5.5 0 0 1-1 0v-4a.5.5 0 0 0-.5-.5h-4a.5.5 0 0 1-.5-.5zm10 1a1.5 1.5 0 0 1 1.5-1.5h4a.5.5 0 0 1 0 1h-4a.5.5 0 0 0-.5.5v4a.5.5 0 0 1-1 0v-4z"/>
</symbol>
<symbol id="person" fill="currentColor" viewBox="0 0 16 16">
  <path d="M3 14s-1 0-1-1 1-4 6-4 6 3 6 4-1 1-1 1H3zm5-6a3 3 0 1 0 0-6 3 3 0 0 0 0 6z"/>
</symbol>
<symbol id="x" fill="currentColor" viewBox="0 0 16 16">
  <path d="M2.146 2.854a.5.5 0 1 1 .708-.708L8 7.293l5.146-5.147a.5.5 0 0 1 .708.708L8.707 8l5.147 5.146a.5.5 0 0 1-.708.708L8 8.707l-5.146 5.147a.5.5 0 0 1-.708-.708L7.293 8 2.146 2.854Z"/>
</symbol>
<symbol id="close-x" viewBox="0 0 24 24" fill="currentColor">
<path d="M6.22566 4.81096C5.83514 4.42044 5.20197 4.42044 4.81145 4.81096C4.42092 5.20148 4.42092 5.83465 4.81145 6.22517L10.5862 11.9999L4.81151 17.7746C4.42098 18.1651 4.42098 18.7983 4.81151 19.1888C5.20203 19.5793 5.8352 19.5793 6.22572 19.1888L12.0004 13.4141L17.7751 19.1888C18.1656 19.5793 18.7988 19.5793 19.1893 19.1888C19.5798 18.7983 19.5798 18.1651 19.1893 17.7746L13.4146 11.9999L19.1893 6.22517C19.5799 5.83465 19.5799 5.20148 19.1893 4.81096C18.7988 4.42044 18.1657 4.42044 17.7751 4.81096L12.0004 10.5857L6.22566 4.81096Z" fill="currentColor"/>
</symbol>
<symbol id="close-cross" viewBox="0 0 24 24">
<path fill="currentColor" d="M18.4 4L12 10.4L5.6 4L4 5.6L10.4 12L4 18.4L5.6 20L12 13.6L18.4 20L20 18.4L13.6 12L20 5.6L18.4 4Z">
</path>
</symbol>
<symbol id="wrench" fill="currentColor" viewBox="0 0 16 16">
  <path d="M16 4.5a4.492 4.492 0 0 1-1.703 3.526L13 5l2.959-1.11c.027.2.041.403.041.61Z"/>
  <path d="M11.5 9c.653 0 1.273-.139 1.833-.39L12 5.5 11 3l3.826-1.53A4.5 4.5 0 0 0 7.29 6.092l-6.116 5.096a2.583 2.583 0 1 0 3.638 3.638L9.908 8.71A4.49 4.49 0 0 0 11.5 9Zm-1.292-4.361-.596.893.809-.27a.25.25 0 0 1 .287.377l-.596.893.809-.27.158.475-1.5.5a.25.25 0 0 1-.287-.376l.596-.893-.809.27a.25.25 0 0 1-.287-.377l.596-.893-.809.27-.158-.475 1.5-.5a.25.25 0 0 1 .287.376ZM3 14a1 1 0 1 1 0-2 1 1 0 0 1 0 2Z"/>
</symbol>
<symbol id="temp" fill="currentColor" viewBox="0 0 16 16">
  <path d="M6.5 0A1.5 1.5 0 0 0 5 1.5v1A1.5 1.5 0 0 0 6.5 4h3A1.5 1.5 0 0 0 11 2.5v-1A1.5 1.5 0 0 0 9.5 0h-3Zm3 1a.5.5 0 0 1 .5.5v1a.5.5 0 0 1-.5.5h-3a.5.5 0 0 1-.5-.5v-1a.5.5 0 0 1 .5-.5h3Z"/>
  <path d="M4 1.5H3a2 2 0 0 0-2 2V14a2 2 0 0 0 2 2h10a2 2 0 0 0 2-2V3.5a2 2 0 0 0-2-2h-1v1A2.5 2.5 0 0 1 9.5 5h-3A2.5 2.5 0 0 1 4 2.5v-1ZM10 8a1 1 0 1 1 2 0v5a1 1 0 1 1-2 0V8Zm-6 4a1 1 0 1 1 2 0v1a1 1 0 1 1-2 0v-1Zm4-3a1 1 0 0 1 1 1v3a1 1 0 1 1-2 0v-3a1 1 0 0 1 1-1Z"/>
</symbol>
<symbol id="box" fill="currentColor" viewBox="0 0 16 16">
  <path d="M7.752.066a.5.5 0 0 1 .496 0l3.75 2.143a.5.5 0 0 1 .252.434v3.995l3.498 2A.5.5 0 0 1 16 9.07v4.286a.5.5 0 0 1-.252.434l-3.75 2.143a.5.5 0 0 1-.496 0l-3.502-2-3.502 2.001a.5.5 0 0 1-.496 0l-3.75-2.143A.5.5 0 0 1 0 13.357V9.071a.5.5 0 0 1 .252-.434L3.75 6.638V2.643a.5.5 0 0 1 .252-.434L7.752.066ZM4.25 7.504 1.508 9.071l2.742 1.567 2.742-1.567L4.25 7.504ZM7.5 9.933l-2.75 1.571v3.134l2.75-1.571V9.933Zm1 3.134 2.75 1.571v-3.134L8.5 9.933v3.134Zm.508-3.996 2.742 1.567 2.742-1.567-2.742-1.567-2.742 1.567Zm2.242-2.433V3.504L8.5 5.076V8.21l2.75-1.572ZM7.5 8.21V5.076L4.75 3.504v3.134L7.5 8.21ZM5.258 2.643 8 4.21l2.742-1.567L8 1.076 5.258 2.643ZM15 9.933l-2.75 1.571v3.134L15 13.067V9.933ZM3.75 14.638v-3.134L1 9.933v3.134l2.75 1.571Z"/>
</symbol>
<symbol id="temp-logo" fill="currentColor" viewBox="0 0 16 16">
  <path d="M1 11a1 1 0 0 1 1-1h2a1 1 0 0 1 1 1v3a1 1 0 0 1-1 1H2a1 1 0 0 1-1-1v-3zm5-4a1 1 0 0 1 1-1h2a1 1 0 0 1 1 1v7a1 1 0 0 1-1 1H7a1 1 0 0 1-1-1V7zm5-5a1 1 0 0 1 1-1h2a1 1 0 0 1 1 1v12a1 1 0 0 1-1 1h-2a1 1 0 0 1-1-1V2z"/>
</symbol>
<symbol id="split-one" fill="currentColor" class="bi bi-app" viewBox="0 0 16 16">
  <path d="M14,1a1,1,0,0,1,1,1V14a1,1,0,0,1-1,1H2a1,1,0,0,1-1-1V2A1,1,0,0,1,2,1ZM2,0A2,2,0,0,0,0,2V14a2,2,0,0,0,2,2H14a2,2,0,0,0,2-2V2a2,2,0,0,0-2-2Z"/>
</symbol>
<symbol id="split-two" fill="currentColor" viewBox="0 0 16 16">>
  <path d="M0,2.29A2.16,2.16,0,0,1,2,0H14a2.16,2.16,0,0,1,2,2.29V13.71A2.16,2.16,0,0,1,14,16H2a2.16,2.16,0,0,1-2-2.29ZM8.5,1.14V14.86H14a1.08,1.08,0,0,0,1-1.15V2.29a1.08,1.08,0,0,0-1-1.15Zm-1,0H2A1.08,1.08,0,0,0,1,2.29V13.71a1.08,1.08,0,0,0,1,1.15H7.5Z"/>
</symbol>
<symbol id="grip-vertical" fill="currentColor" viewBox="0 0 16 16">
  <path d="M7 2a1 1 0 1 1-2 0 1 1 0 0 1 2 0zm3 0a1 1 0 1 1-2 0 1 1 0 0 1 2 0zM7 5a1 1 0 1 1-2 0 1 1 0 0 1 2 0zm3 0a1 1 0 1 1-2 0 1 1 0 0 1 2 0zM7 8a1 1 0 1 1-2 0 1 1 0 0 1 2 0zm3 0a1 1 0 1 1-2 0 1 1 0 0 1 2 0zm-3 3a1 1 0 1 1-2 0 1 1 0 0 1 2 0zm3 0a1 1 0 1 1-2 0 1 1 0 0 1 2 0zm-3 3a1 1 0 1 1-2 0 1 1 0 0 1 2 0zm3 0a1 1 0 1 1-2 0 1 1 0 0 1 2 0z"/>
</symbol>
<symbol id="folder" fill="currentColor" viewBox="0 0 16 16">
  <path d="M.54 3.87.5 3a2 2 0 0 1 2-2h3.672a2 2 0 0 1 1.414.586l.828.828A2 2 0 0 0 9.828 3h3.982a2 2 0 0 1 1.992 2.181l-.637 7A2 2 0 0 1 13.174 14H2.826a2 2 0 0 1-1.991-1.819l-.637-7a1.99 1.99 0 0 1 .342-1.31zM2.19 4a1 1 0 0 0-.996 1.09l.637 7a1 1 0 0 0 .995.91h10.348a1 1 0 0 0 .995-.91l.637-7A1 1 0 0 0 13.81 4H2.19zm4.69-1.707A1 1 0 0 0 6.172 2H2.5a1 1 0 0 0-1 .981l.006.139C1.72 3.042 1.95 3 2.19 3h5.396l-.707-.707z"/>
</symbol>
<symbol id="search" fill="currentColor" viewBox="0 0 16 16">
  <path d="M11.742 10.344a6.5 6.5 0 1 0-1.397 1.398h-.001c.03.04.062.078.098.115l3.85 3.85a1 1 0 0 0 1.415-1.414l-3.85-3.85a1.007 1.007 0 0 0-.115-.1zM12 6.5a5.5 5.5 0 1 1-11 0 5.5 5.5 0 0 1 11 0z"/>
</symbol>

<symbol id="model-icon" viewBox="0 0 209 209" fill="currentColor">
<path d="M201.5,112c4.143,0,7.5-3.357,7.5-7.5s-3.357-7.5-7.5-7.5H184V43.333h17.5c4.143,0,7.5-3.357,7.5-7.5s-3.357-7.5-7.5-7.5
	H184V7.5c0-4.143-3.357-7.5-7.5-7.5S169,3.357,169,7.5v20.833h-53.666V7.5c0-4.143-3.357-7.5-7.5-7.5s-7.5,3.357-7.5,7.5v20.833
	H46.667V7.5c0-4.143-3.357-7.5-7.5-7.5s-7.5,3.357-7.5,7.5v20.833H7.5c-4.143,0-7.5,3.357-7.5,7.5s3.357,7.5,7.5,7.5h24.167V97H7.5
	c-4.143,0-7.5,3.357-7.5,7.5s3.357,7.5,7.5,7.5h24.167v53.666H7.5c-4.143,0-7.5,3.357-7.5,7.5s3.357,7.5,7.5,7.5h24.167V201.5
	c0,4.143,3.357,7.5,7.5,7.5s7.5-3.357,7.5-7.5v-20.834h53.667V201.5c0,4.143,3.357,7.5,7.5,7.5s7.5-3.357,7.5-7.5v-20.834H169V201.5
	c0,4.143,3.357,7.5,7.5,7.5s7.5-3.357,7.5-7.5v-20.834h17.5c4.143,0,7.5-3.357,7.5-7.5s-3.357-7.5-7.5-7.5H184V112H201.5z
	 M169,43.333V97h-53.666V43.333H169z M46.667,43.333h53.667V97H46.667V43.333z M46.667,165.666V112h53.667v53.666H46.667z
	 M169,165.666h-53.666V112H169V165.666z"/>
</symbol>

<svg id="model-icon-2" viewBox="0 0 24 24" fill="currentColor"  stroke="currentColor" stroke-width="2"  stroke-linecap="round" stroke-linejoin="round" color="currentColor">
<path d="M7 3V21"/>
<path d="M17 3V21"/>
<path d="M21 17L3 17"/>
<path d="M21 7L3 7"/>
</svg>

<symbol id="plot-icon-2" viewBox="0 0 20 20" fill="currentColor">
<path d="M1 10h3v10H1V10zM6 0h3v20H6V0zm5 8h3v12h-3V8zm5-4h3v16h-3V4z"/>
</symbol>

<symbol id="plot-icon" viewBox="0 0 24 24" fill="currentColor">
    <path d="M13 5h2v14h-2V5zm-2 4H9v10h2V9zm-4 4H5v6h2v-6zm12 0h-2v6h2v-6z" fill="currentColor"/>
</symbol>

<symbol id="bug" viewBox="0 0 432.458 432.458" fill="currentColor">
<g>
	<path id="XMLID_835_" d="M322.743,106.629c-2.778-4.518-5.731-8.889-8.873-13.08c-25.777-34.375-60.453-53.307-97.641-53.307
		s-71.864,18.932-97.641,53.307c-3.143,4.191-6.095,8.562-8.874,13.08c20.061,31.973,60.275,53.85,106.514,53.85
		C262.469,160.479,302.683,138.602,322.743,106.629z"/>
	<path id="XMLID_1453_" d="M417.458,201.755h-65.606c-0.808-12.567-2.625-24.87-5.406-36.742l51.575-51.576
		c5.858-5.858,5.858-15.355,0-21.213c-5.857-5.858-15.355-5.858-21.213,0l-25.966,25.966c-7.348,12.845-17.202,24.674-29.365,35.028
		c-24.637,20.972-56.246,33.718-90.248,36.621v202.376c31.443-4.39,60.365-22.55,82.641-52.255
		c3.907-5.21,7.536-10.687,10.881-16.395l52.058,52.058c2.929,2.929,6.768,4.393,10.607,4.393c3.838,0,7.678-1.465,10.606-4.393
		c5.858-5.858,5.858-15.355,0-21.213l-59.579-59.58c7.427-19.594,11.986-40.927,13.41-63.076h65.606c8.284,0,15-6.716,15-15
		C432.458,208.471,425.742,201.755,417.458,201.755z"/>
	<path id="XMLID_1457_" d="M201.23,189.84c-34.003-2.903-65.612-15.649-90.249-36.621c-12.163-10.354-22.017-22.183-29.365-35.028
		L55.65,92.224c-5.858-5.858-15.356-5.858-21.213,0c-5.858,5.858-5.858,15.355,0,21.213l51.575,51.575
		c-2.78,11.873-4.598,24.175-5.406,36.742H15c-8.284,0-15,6.716-15,15c0,8.284,6.716,15,15,15h65.606
		c1.424,22.149,5.983,43.482,13.41,63.076l-59.579,59.579c-5.858,5.858-5.858,15.355,0,21.213c5.857,5.858,15.355,5.858,21.213,0
		l52.058-52.058c3.345,5.708,6.974,11.185,10.881,16.395c22.274,29.705,51.197,47.866,82.641,52.255V189.84z"/>
</g>

</symbol>

<symbol id="plus" viewBox="0 0 45.402 45.402" fill="currentColor">
<g>
	<path d="M41.267,18.557H26.832V4.134C26.832,1.851,24.99,0,22.707,0c-2.283,0-4.124,1.851-4.124,4.135v14.432H4.141
		c-2.283,0-4.139,1.851-4.138,4.135c-0.001,1.141,0.46,2.187,1.207,2.934c0.748,0.749,1.78,1.222,2.92,1.222h14.453V41.27
		c0,1.142,0.453,2.176,1.201,2.922c0.748,0.748,1.777,1.211,2.919,1.211c2.282,0,4.129-1.851,4.129-4.133V26.857h14.435
		c2.283,0,4.134-1.867,4.133-4.15C45.399,20.425,43.548,18.557,41.267,18.557z"/>
</g>
</symbol>

<symbol id="question" viewBox="0 0 52 52" fill="currentColor">
<g>
	<g>
		<path d="M28.4,38h-5c-0.8,0-1.4-0.6-1.4-1.4v-1.5c0-4.2,2.7-8,6.7-9.4c1.2-0.4,2.3-1.1,3.2-2.1
			c5-6,0.4-13.2-5.6-13.4c-2.2-0.1-4.3,0.7-5.9,2.2c-1.3,1.2-2.1,2.7-2.3,4.4c-0.1,0.6-0.7,1.1-1.5,1.1h-5c-0.9,0-1.6-0.7-1.5-1.6
			c0.4-3.8,2.1-7.2,4.8-9.9c3.2-3,7.3-4.6,11.7-4.5c8.3,0.3,15.1,7.1,15.4,15.4c0.3,7-4,13.3-10.5,15.7c-0.9,0.4-1.5,1.1-1.5,2v1.5
			C30,37.4,29.2,38,28.4,38z"/>
	</g>
	<path d="M30,48.5c0,0.8-0.7,1.5-1.5,1.5h-5c-0.8,0-1.5-0.7-1.5-1.5v-5c0-0.8,0.7-1.5,1.5-1.5h5
		c0.8,0,1.5,0.7,1.5,1.5V48.5z"/>
</g>
</symbol>


</defs>
</svg>
