<?xml version="1.0" encoding="utf-8"?>
<!-- Svg Vector Icons : http://www.onlinewebfonts.com/icon -->
<!DOCTYPE svg PUBLIC "-//W3C//DTD SVG 1.1//EN" "http://www.w3.org/Graphics/SVG/1.1/DTD/svg11.dtd">
<svg version="1.1" xmlns="http://www.w3.org/2000/svg" xmlns:xlink="http://www.w3.org/1999/xlink" x="0px" y="0px" viewBox="0 0 1000 1000" enable-background="new 0 0 1000 1000" xml:space="preserve">
<metadata> Svg Vector Icons : http://www.onlinewebfonts.com/icon </metadata>
<g><path d="M173.3,336.7C83.5,336.7,10,263.2,10,173.3C10,83.5,83.5,10,173.3,10c89.8,0,163.3,73.5,163.3,163.3C336.7,263.2,263.2,336.7,173.3,336.7z M173.3,91.7c-44.9,0-81.7,36.8-81.7,81.7c0,44.9,36.7,81.7,81.7,81.7c44.9,0,81.7-36.8,81.7-81.7C255,128.4,218.3,91.7,173.3,91.7z"/><path d="M663.3,663.3C573.5,663.3,500,589.8,500,500s73.5-163.3,163.3-163.3c89.8,0,163.3,73.5,163.3,163.3S753.2,663.3,663.3,663.3z M663.3,418.3c-44.9,0-81.7,36.7-81.7,81.7s36.8,81.7,81.7,81.7c44.9,0,81.7-36.7,81.7-81.7S708.3,418.3,663.3,418.3z"/><path d="M949.2,214.2H295.8c-24.5,0-40.8-16.3-40.8-40.8s16.3-40.8,40.8-40.8h653.3c24.5,0,40.8,16.3,40.8,40.8S973.7,214.2,949.2,214.2z"/><path d="M949.2,540.8H785.8c-24.5,0-40.8-16.3-40.8-40.8c0-24.5,16.3-40.8,40.8-40.8h163.3c24.5,0,40.8,16.3,40.8,40.8C990,524.5,973.7,540.8,949.2,540.8z"/><path d="M540.8,540.8h-490C26.3,540.8,10,524.5,10,500c0-24.5,16.3-40.8,40.8-40.8h490c24.5,0,40.8,16.3,40.8,40.8C581.7,524.5,565.3,540.8,540.8,540.8z"/><path d="M418.3,990C328.5,990,255,916.5,255,826.7c0-89.8,73.5-163.3,163.3-163.3c89.8,0,163.3,73.5,163.3,163.3C581.7,916.5,508.2,990,418.3,990z M418.3,745c-44.9,0-81.7,36.8-81.7,81.7c0,44.9,36.8,81.7,81.7,81.7c44.9,0,81.7-36.8,81.7-81.7C500,781.8,463.2,745,418.3,745z"/><path d="M949.2,867.5H540.8c-24.5,0-40.8-16.3-40.8-40.8c0-24.5,16.3-40.8,40.8-40.8h408.3c24.5,0,40.8,16.3,40.8,40.8C990,851.2,973.7,867.5,949.2,867.5z"/><path d="M295.8,867.5h-245c-24.5,0-40.8-16.3-40.8-40.8c0-24.5,16.3-40.8,40.8-40.8h245c24.5,0,40.8,16.3,40.8,40.8C336.7,851.2,320.3,867.5,295.8,867.5z"/></g>
</svg>