<?xml version="1.0" encoding="iso-8859-1"?>
<!-- Generator: Adobe Illustrator 17.1.0, SVG Export Plug-In . SVG Version: 6.00 Build 0)  -->
<!DOCTYPE svg PUBLIC "-//W3C//DTD SVG 1.1//EN" "http://www.w3.org/Graphics/SVG/1.1/DTD/svg11.dtd">
<svg version="1.1" id="Capa_1" xmlns="http://www.w3.org/2000/svg" xmlns:xlink="http://www.w3.org/1999/xlink" x="0px" y="0px"
	 viewBox="0 0 218.293 218.293" style="enable-background:new 0 0 218.293 218.293;" xml:space="preserve">
<path d="M216.097,2.196c-1.479-1.479-3.5-2.267-5.598-2.191c-1.342,0.053-33.14,1.567-56.863,25.29l-27.593,27.593
	c-5.931,1.709-23.265,7.25-34.005,16.362C79.934,79.52,68.1,94.507,67.602,95.14c-2.246,2.855-2.105,6.881,0.261,9.577
	c-7.31,2.992-16.498,7.691-23.099,14.292c-11.651,11.651-21.036,27.14-21.43,27.794c-1.712,2.843-1.353,6.473,0.883,8.925
	c0.269,0.294,0.557,0.563,0.861,0.806c-4.515,6.597-9.257,14.002-12.726,20.434C5.54,189.601,0.476,208.042,0.264,208.821
	c-0.708,2.596,0.03,5.373,1.933,7.275c1.425,1.426,3.341,2.197,5.304,2.197c0.657,0,1.32-0.086,1.972-0.264
	c0.779-0.212,19.22-5.277,31.853-12.089c6.432-3.468,13.836-8.21,20.434-12.726c0.243,0.304,0.512,0.592,0.806,0.861
	c2.453,2.236,6.082,2.596,8.925,0.883c0.654-0.394,16.143-9.778,27.794-21.429c6.602-6.602,11.3-15.792,14.293-23.102
	c1.405,1.233,3.167,1.868,4.941,1.868c1.63,0,3.268-0.53,4.635-1.605c0.633-0.498,15.62-12.332,25.89-24.436
	c9.113-10.74,14.653-28.073,16.362-34.004l27.593-27.593c23.723-23.723,25.237-55.521,25.29-56.863
	C218.37,5.705,217.576,3.675,216.097,2.196z M88.678,162.923c-2.569,2.569-5.393,5.042-8.189,7.308
	c-0.453-0.637-1.012-1.212-1.669-1.697c-2.907-2.142-6.937-1.9-9.576,0.562c-2.333,2.177-21.23,16.197-35.037,23.641
	c-4.531,2.443-10.112,4.687-15.142,6.489c1.801-5.024,4.043-10.601,6.491-15.14c7.445-13.807,21.464-32.703,23.64-35.035
	c2.476-2.635,2.72-6.662,0.58-9.576c-0.487-0.663-1.065-1.225-1.707-1.68c2.265-2.793,4.735-5.615,7.302-8.181
	c6.797-6.797,18.139-11.228,24.135-13.223l22.41,22.41C99.674,145.526,95.075,156.526,88.678,162.923z M143.457,91.852
	c-2.272,2.271-5.293,3.523-8.508,3.523c-3.214,0-6.235-1.252-8.508-3.524c-2.272-2.271-3.524-5.293-3.524-8.508
	s1.252-6.236,3.524-8.508s5.294-3.524,8.508-3.524c3.214,0,6.236,1.252,8.508,3.524s3.524,5.294,3.524,8.508
	S145.73,89.58,143.457,91.852z M183.484,52.487l-8.631,8.631c-2.361,2.361-5.5,3.661-8.839,3.661s-6.478-1.3-8.839-3.661
	c-4.874-4.874-4.874-12.804,0-17.677l8.631-8.631c2.361-2.361,5.5-3.661,8.839-3.661s6.478,1.3,8.839,3.661s3.661,5.5,3.661,8.838
	C187.145,46.987,185.845,50.126,183.484,52.487z"/>
<g>
</svg>
